<?xml version="1.0" encoding="UTF-8" standalone="no"?>
<!-- Created with Inkscape (http://www.inkscape.org/) -->

<svg
   xmlns:dc="http://purl.org/dc/elements/1.1/"
   xmlns:cc="http://creativecommons.org/ns#"
   xmlns:rdf="http://www.w3.org/1999/02/22-rdf-syntax-ns#"
   xmlns:svg="http://www.w3.org/2000/svg"
   xmlns="http://www.w3.org/2000/svg"
   xmlns:sodipodi="http://sodipodi.sourceforge.net/DTD/sodipodi-0.dtd"
   xmlns:inkscape="http://www.inkscape.org/namespaces/inkscape"
   width="128"
   height="128"
   viewBox="0 0 33.866666 33.866668"
   version="1.1"
   id="svg821"
   inkscape:export-filename="C:\Users\liffiton\Downloads\bitmap.png"
   inkscape:export-xdpi="144.00002"
   inkscape:export-ydpi="144.00002"
   inkscape:version="0.92.4 (5da689c313, 2019-01-14)"
   sodipodi:docname="256asm_icon.svg">
  <defs
     id="defs815" />
  <sodipodi:namedview
     id="base"
     pagecolor="#ffffff"
     bordercolor="#666666"
     borderopacity="1.0"
     inkscape:pageopacity="0.0"
     inkscape:pageshadow="2"
     inkscape:zoom="2.5867402"
     inkscape:cx="58.689325"
     inkscape:cy="-181.51693"
     inkscape:document-units="mm"
     inkscape:current-layer="layer1"
     showgrid="false"
     units="px"
     inkscape:snap-page="false"
     inkscape:snap-bbox="true"
     inkscape:snap-bbox-edge-midpoints="true"
     inkscape:bbox-paths="true"
     showguides="true"
     inkscape:guide-bbox="true"
     inkscape:window-width="3840"
     inkscape:window-height="2124"
     inkscape:window-x="0"
     inkscape:window-y="36"
     inkscape:window-maximized="1">
    <sodipodi:guide
       position="0,16.933333"
       orientation="0,1"
       id="guide1382"
       inkscape:locked="false"
       inkscape:label=""
       inkscape:color="rgb(0,0,255)" />
  </sodipodi:namedview>
  <metadata
     id="metadata818">
    <rdf:RDF>
      <cc:Work
         rdf:about="">
        <dc:format>image/svg+xml</dc:format>
        <dc:type
           rdf:resource="http://purl.org/dc/dcmitype/StillImage" />
        <dc:title />
      </cc:Work>
    </rdf:RDF>
  </metadata>
  <g
     inkscape:label="Layer 1"
     inkscape:groupmode="layer"
     id="layer1"
     transform="translate(0,-263.13331)">
    <path
       style="opacity:1;fill:#933f3f;fill-opacity:1;stroke:none;stroke-width:0.37795275;stroke-linecap:round;stroke-linejoin:round;stroke-miterlimit:4;stroke-dasharray:1.13385823, 1.13385822999999997;stroke-dashoffset:0;stroke-opacity:1"
       d="M 128 63.998047 L 0 63.998047 L 0 108.5918 C 2.3684758e-15 119.34407 8.6559299 128 19.408203 128 L 108.5918 128 C 119.34407 128 128 119.34407 128 108.5918 L 128 63.998047 z "
       id="path1387"
       transform="matrix(0.26458333,0,0,0.26458333,0,263.13331)" />
    <path
       style="opacity:1;fill:#3f933f;fill-opacity:1;stroke:none;stroke-width:0.37795275;stroke-linecap:round;stroke-linejoin:round;stroke-miterlimit:4;stroke-dasharray:1.13385823, 1.13385822999999997;stroke-dashoffset:0;stroke-opacity:1"
       d="M 0 19.408203 L 0 63.998047 L 128 63.998047 L 128 19.408203 C 128 8.6559299 119.34407 0 108.5918 0 L 19.408203 0 C 8.6559299 0 0 8.6559299 0 19.408203 z "
       id="rect1366"
       transform="matrix(0.26458333,0,0,0.26458333,0,263.13331)" />
    <g
       aria-label="256 ASM"
       style="font-style:normal;font-variant:normal;font-weight:normal;font-stretch:normal;font-size:6.3499999px;line-height:1;font-family:Calibri;-inkscape-font-specification:Calibri;font-variant-ligatures:normal;font-variant-caps:normal;font-variant-numeric:normal;font-feature-settings:normal;text-align:start;letter-spacing:0px;word-spacing:0px;writing-mode:lr-tb;text-anchor:start;fill:#333333;fill-opacity:1;stroke:none;stroke-width:0.26458332px;stroke-linecap:butt;stroke-linejoin:miter;stroke-opacity:1"
       id="text1370-3"
       transform="translate(0.30685338,0.30685339)">
      <path
         inkscape:connector-curvature="0"
         d="m 12.100473,276.19812 q 0,0.14883 -0.0248,0.26458 -0.01654,0.11576 -0.05788,0.19844 -0.03307,0.0744 -0.09922,0.11575 -0.05788,0.0331 -0.132292,0.0331 H 5.8744963 q -0.1157552,0 -0.2067057,-0.0248 -0.082682,-0.0331 -0.1488281,-0.0992 -0.057878,-0.0661 -0.090951,-0.19017 -0.024805,-0.12402 -0.024805,-0.30592 0,-0.16536 0.00827,-0.28939 0.016536,-0.12402 0.057878,-0.21497 0.041341,-0.0992 0.099219,-0.19017 0.066146,-0.0992 0.1653646,-0.20671 l 2.0753254,-2.19935 q 0.7193359,-0.76067 1.1492838,-1.36425 0.4382161,-0.60358 0.6697265,-1.09968 0.2397787,-0.49609 0.3141927,-0.90123 0.074414,-0.40515 0.074414,-0.76068 0,-0.35554 -0.1157488,-0.66973 -0.1157552,-0.32246 -0.3389974,-0.56224 -0.2149739,-0.23978 -0.5457031,-0.38034 -0.3307291,-0.14056 -0.760677,-0.14056 -0.504362,0 -0.9095052,0.14056 -0.396875,0.14056 -0.7027994,0.30593 -0.2976563,0.16536 -0.504362,0.30592 -0.1984375,0.14056 -0.2976562,0.14056 -0.057878,0 -0.107487,-0.0331 -0.041341,-0.0331 -0.074414,-0.10749 -0.024805,-0.0744 -0.041341,-0.19844 -0.016536,-0.12402 -0.016536,-0.29765 0,-0.12402 0.00827,-0.21498 0.00827,-0.091 0.024805,-0.15709 0.024805,-0.0661 0.057878,-0.12403 0.033073,-0.0579 0.1322916,-0.14056 0.099219,-0.091 0.3389974,-0.23977 0.2480469,-0.14883 0.6118489,-0.28939 0.3720703,-0.14883 0.8102864,-0.24805 0.4464844,-0.0992 0.9343099,-0.0992 0.7772135,0 1.3559895,0.22324 0.5870384,0.21498 0.9673774,0.59532 0.388607,0.38034 0.578776,0.8847 0.190169,0.50436 0.190169,1.07487 0,0.51263 -0.09095,1.02526 -0.09095,0.50436 -0.388607,1.09967 -0.289388,0.58705 -0.84336,1.31465 -0.5539653,0.71934 -1.4717387,1.66191 l -1.6949869,1.76941 h 4.6550076 q 0.06614,0 0.124023,0.0413 0.06615,0.0331 0.107487,0.10748 0.04961,0.0744 0.06615,0.19017 0.0248,0.10749 0.0248,0.25632 z"
         style="font-style:normal;font-variant:normal;font-weight:normal;font-stretch:normal;font-size:16.93333244px;font-family:Calibri;-inkscape-font-specification:Calibri;text-align:center;text-anchor:middle;fill:#333333;fill-opacity:1;stroke-width:0.26458332px"
         id="path14-6" />
      <path
         inkscape:connector-curvature="0"
         d="m 20.649821,273.37038 q 0,0.8599 -0.289388,1.52963 -0.289388,0.66972 -0.818554,1.13274 -0.529167,0.45476 -1.265039,0.69453 -0.727605,0.23978 -1.620573,0.23978 -0.496094,0 -0.942578,-0.0744 -0.446485,-0.0661 -0.79375,-0.16537 -0.347266,-0.10748 -0.570508,-0.2067 -0.223242,-0.0992 -0.289388,-0.1571 -0.05788,-0.0579 -0.08268,-0.10748 -0.02481,-0.0496 -0.04961,-0.11576 -0.01654,-0.0744 -0.0248,-0.1819 -0.0083,-0.10749 -0.0083,-0.25632 0,-0.14056 0.0083,-0.24804 0.01654,-0.11576 0.04961,-0.1819 0.03307,-0.0744 0.07441,-0.10749 0.04961,-0.0331 0.107487,-0.0331 0.08268,0 0.256315,0.10748 0.173633,0.0992 0.463021,0.22325 0.297656,0.11575 0.727604,0.22324 0.438216,0.10748 1.033529,0.10748 0.553971,0 1.016992,-0.13229 0.463021,-0.13229 0.79375,-0.41341 0.338997,-0.28112 0.529166,-0.7028 0.19017,-0.42995 0.19017,-1.04179 0,-0.51263 -0.165365,-0.90124 -0.157096,-0.39688 -0.496094,-0.65319 -0.330729,-0.26458 -0.843359,-0.38861 -0.51263,-0.13229 -1.223698,-0.13229 -0.504362,0 -0.868164,0.0496 -0.363802,0.0496 -0.677995,0.0496 -0.23151,0 -0.330729,-0.10749 -0.09922,-0.10749 -0.09922,-0.41341 v -4.35736 q 0,-0.27285 0.124024,-0.40514 0.132291,-0.13229 0.37207,-0.13229 h 4.737695 q 0.06615,0 0.124024,0.0413 0.06615,0.0331 0.107487,0.10749 0.04134,0.0744 0.05788,0.19017 0.02481,0.11575 0.02481,0.27285 0,0.29765 -0.08268,0.46302 -0.08268,0.16536 -0.231511,0.16536 h -3.993554 v 3.00137 q 0.289388,-0.0413 0.587044,-0.0496 0.305924,-0.008 0.702799,-0.008 0.917774,0 1.604037,0.22324 0.686263,0.21498 1.141015,0.62012 0.463021,0.39688 0.694532,0.96738 0.239778,0.57051 0.239778,1.26504 z"
         style="font-style:normal;font-variant:normal;font-weight:normal;font-stretch:normal;font-size:16.93333244px;font-family:Calibri;-inkscape-font-specification:Calibri;text-align:center;text-anchor:middle;fill:#333333;fill-opacity:1;stroke-width:0.26458332px"
         id="path16-7" />
      <path
         inkscape:connector-curvature="0"
         d="m 29.57124,273.34558 q 0,0.7028 -0.214974,1.36426 -0.214974,0.65319 -0.661458,1.15755 -0.446484,0.49609 -1.132747,0.80202 -0.686263,0.29765 -1.620573,0.29765 -0.669727,0 -1.182357,-0.16536 -0.51263,-0.16537 -0.892969,-0.47129 -0.380338,-0.30592 -0.636653,-0.75241 -0.248047,-0.44648 -0.405144,-1.01699 -0.148828,-0.57051 -0.214973,-1.2485 -0.06615,-0.678 -0.06615,-1.45521 0,-0.68626 0.07441,-1.38906 0.07441,-0.7028 0.264583,-1.35599 0.190169,-0.65319 0.51263,-1.2237 0.330729,-0.57878 0.818555,-1.00046 0.496094,-0.42995 1.182357,-0.67799 0.686263,-0.24805 1.595768,-0.24805 0.305924,0 0.620117,0.0413 0.314193,0.0331 0.578776,0.0992 0.264583,0.0579 0.446484,0.13229 0.181901,0.0744 0.239779,0.12403 0.05788,0.0413 0.08268,0.0992 0.03307,0.0496 0.04961,0.11576 0.01654,0.0579 0.0248,0.14056 0.0083,0.0744 0.0083,0.19017 0,0.14883 -0.0083,0.25631 0,0.10749 -0.03307,0.17364 -0.0248,0.0661 -0.07441,0.0992 -0.04134,0.0331 -0.115755,0.0331 -0.09095,0 -0.248047,-0.0579 -0.157096,-0.0579 -0.380338,-0.12402 -0.223242,-0.0744 -0.545703,-0.13229 -0.314193,-0.0579 -0.735873,-0.0579 -0.768945,0 -1.322916,0.31419 -0.553972,0.31419 -0.909506,0.84336 -0.347265,0.52917 -0.520898,1.23197 -0.165365,0.69453 -0.190169,1.4552 0.214974,-0.12402 0.479557,-0.24804 0.272852,-0.12403 0.587044,-0.22324 0.322461,-0.0992 0.677995,-0.1571 0.355534,-0.0662 0.760677,-0.0662 0.868164,0 1.463477,0.23978 0.595312,0.23151 0.959114,0.65319 0.37207,0.41341 0.529167,0.98392 0.157096,0.56224 0.157096,1.2237 z m -1.438672,0.13229 q 0,-0.47956 -0.09922,-0.86816 -0.09095,-0.39688 -0.314193,-0.66973 -0.223242,-0.27285 -0.595313,-0.42168 -0.37207,-0.14883 -0.917773,-0.14883 -0.305924,0 -0.611849,0.0579 -0.305924,0.0496 -0.595312,0.14883 -0.28112,0.0909 -0.545703,0.22324 -0.256316,0.12402 -0.47129,0.27285 0,1.0666 0.132292,1.78594 0.14056,0.71934 0.396875,1.15755 0.264583,0.42995 0.65319,0.62012 0.388607,0.1819 0.909505,0.1819 0.529167,0 0.917774,-0.19844 0.388607,-0.19844 0.644922,-0.52916 0.256315,-0.339 0.37207,-0.75241 0.124023,-0.42168 0.124023,-0.8599 z"
         style="font-style:normal;font-variant:normal;font-weight:normal;font-stretch:normal;font-size:16.93333244px;font-family:Calibri;-inkscape-font-specification:Calibri;text-align:center;text-anchor:middle;fill:#333333;fill-opacity:1;stroke-width:0.26458332px"
         id="path18-5" />
      <path
         inkscape:connector-curvature="0"
         d="m 10.769288,293.23894 q 0.06615,0.1819 0.06615,0.29765 0.0083,0.10749 -0.05788,0.16537 -0.06615,0.0579 -0.223242,0.0744 -0.148828,0.0165 -0.405143,0.0165 -0.2563155,0 -0.4134119,-0.0165 -0.1488281,-0.008 -0.2315104,-0.0331 -0.074414,-0.0331 -0.1157552,-0.0827 -0.033073,-0.0496 -0.066146,-0.12403 L 8.4045743,290.9321 H 3.9562672 l -0.8764322,2.57142 q -0.024805,0.0744 -0.066146,0.13229 -0.041341,0.0496 -0.1240235,0.091 -0.074414,0.0331 -0.2232421,0.0496 -0.1405599,0.0165 -0.3720703,0.0165 -0.2397787,0 -0.396875,-0.0248 -0.1488281,-0.0165 -0.214974,-0.0744 -0.057878,-0.0579 -0.057878,-0.16536 0.00827,-0.11576 0.074414,-0.29766 l 3.5884113,-9.93841 q 0.033073,-0.091 0.082682,-0.14883 0.057878,-0.0579 0.1570964,-0.091 0.107487,-0.0331 0.2645833,-0.0413 0.1653646,-0.0165 0.4134114,-0.0165 0.2645834,0 0.4382162,0.0165 0.1736328,0.008 0.2811197,0.0413 0.107487,0.0331 0.1653646,0.0992 0.057878,0.0579 0.09095,0.14883 z m -4.6054037,-8.77259 h -0.00827 l -1.843815,5.333 H 8.032504 Z"
         style="font-style:normal;font-variant:normal;font-weight:normal;font-stretch:normal;font-size:16.93333244px;font-family:Calibri;-inkscape-font-specification:Calibri;text-align:center;text-anchor:middle;fill:#333333;fill-opacity:1;stroke-width:0.26458332px"
         id="path20-3" />
      <path
         inkscape:connector-curvature="0"
         d="m 18.293376,290.74193 q 0,0.75241 -0.28112,1.33946 -0.272851,0.58704 -0.768945,1.00045 -0.487825,0.40514 -1.157552,0.61185 -0.661458,0.20671 -1.430403,0.20671 -0.537435,0 -1.000456,-0.0909 -0.454753,-0.091 -0.818555,-0.22325 -0.355534,-0.13229 -0.60358,-0.27285 -0.239779,-0.14056 -0.338998,-0.23978 -0.09095,-0.0992 -0.14056,-0.24804 -0.04134,-0.1571 -0.04134,-0.41342 0,-0.1819 0.01654,-0.29765 0.01654,-0.12403 0.04961,-0.19844 0.03307,-0.0744 0.08268,-0.0992 0.04961,-0.0331 0.115755,-0.0331 0.115756,0 0.322461,0.14056 0.214974,0.14056 0.545704,0.30592 0.330729,0.16537 0.793749,0.3142 0.47129,0.14056 1.083138,0.14056 0.463021,0 0.84336,-0.12403 0.388607,-0.12402 0.661458,-0.34726 0.28112,-0.23151 0.429948,-0.56224 0.148828,-0.33073 0.148828,-0.75241 0,-0.45475 -0.206706,-0.77721 -0.206705,-0.32247 -0.545703,-0.56224 -0.338997,-0.24805 -0.777213,-0.44649 -0.429948,-0.2067 -0.884701,-0.41341 -0.454752,-0.21497 -0.8847,-0.47129 -0.429948,-0.25631 -0.768945,-0.60358 -0.338998,-0.34727 -0.553972,-0.81029 -0.206706,-0.47129 -0.206706,-1.12448 0,-0.66972 0.239779,-1.19062 0.248047,-0.52917 0.677995,-0.8847 0.438216,-0.35553 1.033528,-0.53744 0.603581,-0.19016 1.298112,-0.19016 0.355534,0 0.711068,0.0661 0.363802,0.0579 0.677995,0.16537 0.322461,0.0992 0.570508,0.23151 0.248046,0.12402 0.322461,0.2067 0.08268,0.0744 0.107486,0.12403 0.02481,0.0413 0.04134,0.11575 0.01654,0.0661 0.0248,0.16536 0.0083,0.0992 0.0083,0.25632 0,0.14883 -0.01654,0.26458 -0.0083,0.11576 -0.03307,0.19844 -0.02481,0.0744 -0.07441,0.11576 -0.04134,0.0331 -0.09922,0.0331 -0.09095,0 -0.289388,-0.11576 -0.190169,-0.11575 -0.471289,-0.25631 -0.281119,-0.14883 -0.669726,-0.26458 -0.380339,-0.12403 -0.859896,-0.12403 -0.446484,0 -0.777213,0.12403 -0.33073,0.11575 -0.545704,0.31419 -0.214974,0.19844 -0.322461,0.47129 -0.107486,0.27285 -0.107486,0.57877 0,0.44649 0.206705,0.76895 0.206706,0.32246 0.545703,0.57051 0.347266,0.24804 0.785482,0.45475 0.438216,0.2067 0.892969,0.42168 0.454752,0.2067 0.892968,0.46302 0.438217,0.24805 0.777214,0.59531 0.347266,0.339 0.553971,0.81029 0.214974,0.46302 0.214974,1.09967 z"
         style="font-style:normal;font-variant:normal;font-weight:normal;font-stretch:normal;font-size:16.93333244px;font-family:Calibri;-inkscape-font-specification:Calibri;text-align:center;text-anchor:middle;fill:#333333;fill-opacity:1;stroke-width:0.26458332px"
         id="path22-5" />
      <path
         inkscape:connector-curvature="0"
         d="m 31.95249,293.52833 q 0,0.0661 -0.03307,0.11575 -0.03307,0.0496 -0.115755,0.0827 -0.08268,0.0248 -0.214974,0.0413 -0.124024,0.0248 -0.330729,0.0248 -0.19017,0 -0.330729,-0.0248 -0.132292,-0.0165 -0.214974,-0.0413 -0.07441,-0.0331 -0.107487,-0.0827 -0.03307,-0.0496 -0.03307,-0.11575 v -9.3183 h -0.01654 l -3.811653,9.35964 q -0.02481,0.0579 -0.07441,0.0992 -0.04134,0.0413 -0.132292,0.0744 -0.08268,0.0248 -0.206706,0.0331 -0.115755,0.0165 -0.281119,0.0165 -0.173633,0 -0.297657,-0.0165 -0.124023,-0.0165 -0.206705,-0.0413 -0.08268,-0.0331 -0.132292,-0.0744 -0.04134,-0.0413 -0.05788,-0.091 l -3.646289,-9.35964 h -0.0083 v 9.3183 q 0,0.0661 -0.03307,0.11575 -0.03307,0.0496 -0.115755,0.0827 -0.08268,0.0248 -0.214974,0.0413 -0.132291,0.0248 -0.338997,0.0248 -0.198438,0 -0.330729,-0.0248 -0.132292,-0.0165 -0.214974,-0.0413 -0.07441,-0.0331 -0.107487,-0.0827 -0.0248,-0.0496 -0.0248,-0.11575 v -9.8392 q 0,-0.34726 0.181901,-0.49609 0.181901,-0.14883 0.405143,-0.14883 h 0.859896 q 0.264583,0 0.463021,0.0496 0.198437,0.0496 0.347265,0.1571 0.148829,0.10748 0.248047,0.27285 0.09922,0.16536 0.173633,0.38861 l 3.100586,7.74733 h 0.04134 l 3.224609,-7.72253 q 0.09095,-0.24805 0.198438,-0.42168 0.107487,-0.17363 0.23151,-0.27285 0.132292,-0.10749 0.289388,-0.14883 0.157097,-0.0496 0.363802,-0.0496 h 0.901237 q 0.124024,0 0.231511,0.0413 0.115755,0.0331 0.190169,0.11576 0.08268,0.0744 0.132292,0.19844 0.04961,0.11575 0.04961,0.28938 z"
         style="font-style:normal;font-variant:normal;font-weight:normal;font-stretch:normal;font-family:Calibri;-inkscape-font-specification:Calibri;fill:#333333"
         id="path24-6" />
    </g>
    <g
       aria-label="256
ASM"
       style="font-style:normal;font-variant:normal;font-weight:normal;font-stretch:normal;font-size:6.3499999px;line-height:1;font-family:Calibri;-inkscape-font-specification:Calibri;font-variant-ligatures:normal;font-variant-caps:normal;font-variant-numeric:normal;font-feature-settings:normal;text-align:start;letter-spacing:0px;word-spacing:0px;writing-mode:lr-tb;text-anchor:start;fill:#ffffff;fill-opacity:1;stroke:none;stroke-width:0.26458332px;stroke-linecap:butt;stroke-linejoin:miter;stroke-opacity:1"
       id="text1370">
      <path
         d="m 12.100473,276.19812 q 0,0.14883 -0.0248,0.26458 -0.01654,0.11576 -0.05788,0.19844 -0.03307,0.0744 -0.09922,0.11575 -0.05788,0.0331 -0.132292,0.0331 H 5.8744963 q -0.1157552,0 -0.2067057,-0.0248 -0.082682,-0.0331 -0.1488281,-0.0992 -0.057878,-0.0661 -0.090951,-0.19017 -0.024805,-0.12402 -0.024805,-0.30592 0,-0.16536 0.00827,-0.28939 0.016536,-0.12402 0.057878,-0.21497 0.041341,-0.0992 0.099219,-0.19017 0.066146,-0.0992 0.1653646,-0.20671 l 2.0753254,-2.19935 q 0.7193359,-0.76067 1.1492838,-1.36425 0.4382161,-0.60358 0.6697265,-1.09968 0.2397787,-0.49609 0.3141927,-0.90123 0.074414,-0.40515 0.074414,-0.76068 0,-0.35554 -0.1157533,-0.66973 -0.1157552,-0.32246 -0.3389974,-0.56224 -0.2149739,-0.23978 -0.5457031,-0.38034 -0.3307291,-0.14056 -0.760677,-0.14056 -0.504362,0 -0.9095052,0.14056 -0.396875,0.14056 -0.7027994,0.30593 -0.2976563,0.16536 -0.504362,0.30592 -0.1984375,0.14056 -0.2976562,0.14056 -0.057878,0 -0.107487,-0.0331 -0.041341,-0.0331 -0.074414,-0.10749 -0.024805,-0.0744 -0.041341,-0.19844 -0.016536,-0.12402 -0.016536,-0.29765 0,-0.12402 0.00827,-0.21498 0.00827,-0.091 0.024805,-0.15709 0.024805,-0.0661 0.057878,-0.12403 0.033073,-0.0579 0.1322916,-0.14056 0.099219,-0.091 0.3389974,-0.23977 0.2480469,-0.14883 0.6118489,-0.28939 0.3720703,-0.14883 0.8102864,-0.24805 0.4464844,-0.0992 0.9343099,-0.0992 0.7772135,0 1.3559895,0.22324 0.5870429,0.21498 0.9673819,0.59532 0.388607,0.38034 0.578776,0.8847 0.190169,0.50436 0.190169,1.07487 0,0.51263 -0.09095,1.02526 -0.09095,0.50436 -0.388607,1.09967 -0.289388,0.58705 -0.84336,1.31465 -0.5539698,0.71934 -1.4717432,1.66191 l -1.6949869,1.76941 h 4.6550121 q 0.06614,0 0.124023,0.0413 0.06615,0.0331 0.107487,0.10748 0.04961,0.0744 0.06615,0.19017 0.0248,0.10749 0.0248,0.25632 z"
         style="font-style:normal;font-variant:normal;font-weight:normal;font-stretch:normal;font-size:16.93333244px;font-family:Calibri;-inkscape-font-specification:Calibri;text-align:center;text-anchor:middle;fill:#ffffff;fill-opacity:1;stroke-width:0.26458332px"
         id="path14"
         inkscape:connector-curvature="0" />
      <path
         d="m 20.649821,273.37038 q 0,0.8599 -0.289388,1.52963 -0.289388,0.66972 -0.818554,1.13274 -0.529167,0.45476 -1.265039,0.69453 -0.727605,0.23978 -1.620573,0.23978 -0.496094,0 -0.942578,-0.0744 -0.446485,-0.0661 -0.79375,-0.16537 -0.347266,-0.10748 -0.570508,-0.2067 -0.223242,-0.0992 -0.289388,-0.1571 -0.05788,-0.0579 -0.08268,-0.10748 -0.02481,-0.0496 -0.04961,-0.11576 -0.01654,-0.0744 -0.0248,-0.1819 -0.0083,-0.10749 -0.0083,-0.25632 0,-0.14056 0.0083,-0.24804 0.01654,-0.11576 0.04961,-0.1819 0.03307,-0.0744 0.07441,-0.10749 0.04961,-0.0331 0.107487,-0.0331 0.08268,0 0.256315,0.10748 0.173633,0.0992 0.463021,0.22325 0.297656,0.11575 0.727604,0.22324 0.438216,0.10748 1.033529,0.10748 0.553971,0 1.016992,-0.13229 0.463021,-0.13229 0.79375,-0.41341 0.338997,-0.28112 0.529166,-0.7028 0.19017,-0.42995 0.19017,-1.04179 0,-0.51263 -0.165365,-0.90124 -0.157096,-0.39688 -0.496094,-0.65319 -0.330729,-0.26458 -0.843359,-0.38861 -0.51263,-0.13229 -1.223698,-0.13229 -0.504362,0 -0.868164,0.0496 -0.363802,0.0496 -0.677995,0.0496 -0.23151,0 -0.330729,-0.10749 -0.09922,-0.10749 -0.09922,-0.41341 v -4.35736 q 0,-0.27285 0.124024,-0.40514 0.132291,-0.13229 0.37207,-0.13229 h 4.737695 q 0.06615,0 0.124024,0.0413 0.06615,0.0331 0.107487,0.10749 0.04134,0.0744 0.05788,0.19017 0.02481,0.11575 0.02481,0.27285 0,0.29765 -0.08268,0.46302 -0.08268,0.16536 -0.231511,0.16536 h -3.993554 v 3.00137 q 0.289388,-0.0413 0.587044,-0.0496 0.305924,-0.008 0.702799,-0.008 0.917774,0 1.604037,0.22324 0.686263,0.21498 1.141015,0.62012 0.463021,0.39688 0.694532,0.96738 0.239778,0.57051 0.239778,1.26504 z"
         style="font-style:normal;font-variant:normal;font-weight:normal;font-stretch:normal;font-size:16.93333244px;font-family:Calibri;-inkscape-font-specification:Calibri;text-align:center;text-anchor:middle;fill:#ffffff;fill-opacity:1;stroke-width:0.26458332px"
         id="path16"
         inkscape:connector-curvature="0" />
      <path
         d="m 29.57124,273.34558 q 0,0.7028 -0.214974,1.36426 -0.214974,0.65319 -0.661458,1.15755 -0.446484,0.49609 -1.132747,0.80202 -0.686263,0.29765 -1.620573,0.29765 -0.669727,0 -1.182357,-0.16536 -0.51263,-0.16537 -0.892969,-0.47129 -0.380338,-0.30592 -0.636653,-0.75241 -0.248047,-0.44648 -0.405144,-1.01699 -0.148828,-0.57051 -0.214973,-1.2485 -0.06615,-0.678 -0.06615,-1.45521 0,-0.68626 0.07441,-1.38906 0.07441,-0.7028 0.264583,-1.35599 0.190169,-0.65319 0.51263,-1.2237 0.330729,-0.57878 0.818555,-1.00046 0.496094,-0.42995 1.182357,-0.67799 0.686263,-0.24805 1.595768,-0.24805 0.305924,0 0.620117,0.0413 0.314193,0.0331 0.578776,0.0992 0.264583,0.0579 0.446484,0.13229 0.181901,0.0744 0.239779,0.12403 0.05788,0.0413 0.08268,0.0992 0.03307,0.0496 0.04961,0.11576 0.01654,0.0579 0.0248,0.14056 0.0083,0.0744 0.0083,0.19017 0,0.14883 -0.0083,0.25631 0,0.10749 -0.03307,0.17364 -0.0248,0.0661 -0.07441,0.0992 -0.04134,0.0331 -0.115755,0.0331 -0.09095,0 -0.248047,-0.0579 -0.157096,-0.0579 -0.380338,-0.12402 -0.223242,-0.0744 -0.545703,-0.13229 -0.314193,-0.0579 -0.735873,-0.0579 -0.768945,0 -1.322916,0.31419 -0.553972,0.31419 -0.909506,0.84336 -0.347265,0.52917 -0.520898,1.23197 -0.165365,0.69453 -0.190169,1.4552 0.214974,-0.12402 0.479557,-0.24804 0.272852,-0.12403 0.587044,-0.22324 0.322461,-0.0992 0.677995,-0.1571 0.355534,-0.0662 0.760677,-0.0662 0.868164,0 1.463477,0.23978 0.595312,0.23151 0.959114,0.65319 0.37207,0.41341 0.529167,0.98392 0.157096,0.56224 0.157096,1.2237 z m -1.438672,0.13229 q 0,-0.47956 -0.09922,-0.86816 -0.09095,-0.39688 -0.314193,-0.66973 -0.223242,-0.27285 -0.595313,-0.42168 -0.37207,-0.14883 -0.917773,-0.14883 -0.305924,0 -0.611849,0.0579 -0.305924,0.0496 -0.595312,0.14883 -0.28112,0.0909 -0.545703,0.22324 -0.256316,0.12402 -0.47129,0.27285 0,1.0666 0.132292,1.78594 0.14056,0.71934 0.396875,1.15755 0.264583,0.42995 0.65319,0.62012 0.388607,0.1819 0.909505,0.1819 0.529167,0 0.917774,-0.19844 0.388607,-0.19844 0.644922,-0.52916 0.256315,-0.339 0.37207,-0.75241 0.124023,-0.42168 0.124023,-0.8599 z"
         style="font-style:normal;font-variant:normal;font-weight:normal;font-stretch:normal;font-size:16.93333244px;font-family:Calibri;-inkscape-font-specification:Calibri;text-align:center;text-anchor:middle;fill:#ffffff;fill-opacity:1;stroke-width:0.26458332px"
         id="path18"
         inkscape:connector-curvature="0" />
      <path
         d="m 10.769288,293.23894 q 0.06615,0.1819 0.06615,0.29765 0.0083,0.10749 -0.05788,0.16537 -0.06615,0.0579 -0.223242,0.0744 -0.148828,0.0165 -0.405143,0.0165 -0.2563155,0 -0.4134119,-0.0165 -0.1488281,-0.008 -0.2315104,-0.0331 -0.074414,-0.0331 -0.1157552,-0.0827 -0.033073,-0.0496 -0.066146,-0.12403 L 8.4045743,290.9321 H 3.9562672 l -0.8764322,2.57142 q -0.024805,0.0744 -0.066146,0.13229 -0.041341,0.0496 -0.1240235,0.091 -0.074414,0.0331 -0.2232421,0.0496 -0.1405599,0.0165 -0.3720703,0.0165 -0.2397787,0 -0.396875,-0.0248 -0.1488281,-0.0165 -0.214974,-0.0744 -0.057878,-0.0579 -0.057878,-0.16536 0.00827,-0.11576 0.074414,-0.29766 l 3.5884113,-9.93841 q 0.033073,-0.091 0.082682,-0.14883 0.057878,-0.0579 0.1570964,-0.091 0.107487,-0.0331 0.2645833,-0.0413 0.1653646,-0.0165 0.4134114,-0.0165 0.2645834,0 0.4382162,0.0165 0.1736328,0.008 0.2811197,0.0413 0.107487,0.0331 0.1653646,0.0992 0.057878,0.0579 0.09095,0.14883 z m -4.6054037,-8.77259 h -0.00827 l -1.843815,5.333 H 8.032504 Z"
         style="font-style:normal;font-variant:normal;font-weight:normal;font-stretch:normal;font-size:16.93333244px;font-family:Calibri;-inkscape-font-specification:Calibri;text-align:center;text-anchor:middle;fill:#ffffff;fill-opacity:1;stroke-width:0.26458332px"
         id="path20"
         inkscape:connector-curvature="0" />
      <path
         d="m 18.293376,290.74193 q 0,0.75241 -0.28112,1.33946 -0.272851,0.58704 -0.768945,1.00045 -0.487825,0.40514 -1.157552,0.61185 -0.661458,0.20671 -1.430403,0.20671 -0.537435,0 -1.000456,-0.0909 -0.454753,-0.091 -0.818555,-0.22325 -0.355534,-0.13229 -0.60358,-0.27285 -0.239779,-0.14056 -0.338998,-0.23978 -0.09095,-0.0992 -0.14056,-0.24804 -0.04134,-0.1571 -0.04134,-0.41342 0,-0.1819 0.01654,-0.29765 0.01654,-0.12403 0.04961,-0.19844 0.03307,-0.0744 0.08268,-0.0992 0.04961,-0.0331 0.115755,-0.0331 0.115756,0 0.322461,0.14056 0.214974,0.14056 0.545704,0.30592 0.330729,0.16537 0.793749,0.3142 0.47129,0.14056 1.083138,0.14056 0.463021,0 0.84336,-0.12403 0.388607,-0.12402 0.661458,-0.34726 0.28112,-0.23151 0.429948,-0.56224 0.148828,-0.33073 0.148828,-0.75241 0,-0.45475 -0.206706,-0.77721 -0.206705,-0.32247 -0.545703,-0.56224 -0.338997,-0.24805 -0.777213,-0.44649 -0.429948,-0.2067 -0.884701,-0.41341 -0.454752,-0.21497 -0.8847,-0.47129 -0.429948,-0.25631 -0.768945,-0.60358 -0.338998,-0.34727 -0.553972,-0.81029 -0.206706,-0.47129 -0.206706,-1.12448 0,-0.66972 0.239779,-1.19062 0.248047,-0.52917 0.677995,-0.8847 0.438216,-0.35553 1.033528,-0.53744 0.603581,-0.19016 1.298112,-0.19016 0.355534,0 0.711068,0.0661 0.363802,0.0579 0.677995,0.16537 0.322461,0.0992 0.570508,0.23151 0.248046,0.12402 0.322461,0.2067 0.08268,0.0744 0.107486,0.12403 0.02481,0.0413 0.04134,0.11575 0.01654,0.0661 0.0248,0.16536 0.0083,0.0992 0.0083,0.25632 0,0.14883 -0.01654,0.26458 -0.0083,0.11576 -0.03307,0.19844 -0.02481,0.0744 -0.07441,0.11576 -0.04134,0.0331 -0.09922,0.0331 -0.09095,0 -0.289388,-0.11576 -0.190169,-0.11575 -0.471289,-0.25631 -0.281119,-0.14883 -0.669726,-0.26458 -0.380339,-0.12403 -0.859896,-0.12403 -0.446484,0 -0.777213,0.12403 -0.33073,0.11575 -0.545704,0.31419 -0.214974,0.19844 -0.322461,0.47129 -0.107486,0.27285 -0.107486,0.57877 0,0.44649 0.206705,0.76895 0.206706,0.32246 0.545703,0.57051 0.347266,0.24804 0.785482,0.45475 0.438216,0.2067 0.892969,0.42168 0.454752,0.2067 0.892968,0.46302 0.438217,0.24805 0.777214,0.59531 0.347266,0.339 0.553971,0.81029 0.214974,0.46302 0.214974,1.09967 z"
         style="font-style:normal;font-variant:normal;font-weight:normal;font-stretch:normal;font-size:16.93333244px;font-family:Calibri;-inkscape-font-specification:Calibri;text-align:center;text-anchor:middle;fill:#ffffff;fill-opacity:1;stroke-width:0.26458332px"
         id="path22"
         inkscape:connector-curvature="0" />
      <path
         d="m 31.95249,293.52833 q 0,0.0661 -0.03307,0.11575 -0.03307,0.0496 -0.115755,0.0827 -0.08268,0.0248 -0.214974,0.0413 -0.124024,0.0248 -0.330729,0.0248 -0.19017,0 -0.330729,-0.0248 -0.132292,-0.0165 -0.214974,-0.0413 -0.07441,-0.0331 -0.107487,-0.0827 -0.03307,-0.0496 -0.03307,-0.11575 v -9.3183 h -0.01654 l -3.811653,9.35964 q -0.02481,0.0579 -0.07441,0.0992 -0.04134,0.0413 -0.132292,0.0744 -0.08268,0.0248 -0.206706,0.0331 -0.115755,0.0165 -0.281119,0.0165 -0.173633,0 -0.297657,-0.0165 -0.124023,-0.0165 -0.206705,-0.0413 -0.08268,-0.0331 -0.132292,-0.0744 -0.04134,-0.0413 -0.05788,-0.091 l -3.646289,-9.35964 h -0.0083 v 9.3183 q 0,0.0661 -0.03307,0.11575 -0.03307,0.0496 -0.115755,0.0827 -0.08268,0.0248 -0.214974,0.0413 -0.132291,0.0248 -0.338997,0.0248 -0.198438,0 -0.330729,-0.0248 -0.132292,-0.0165 -0.214974,-0.0413 -0.07441,-0.0331 -0.107487,-0.0827 -0.0248,-0.0496 -0.0248,-0.11575 v -9.8392 q 0,-0.34726 0.181901,-0.49609 0.181901,-0.14883 0.405143,-0.14883 h 0.859896 q 0.264583,0 0.463021,0.0496 0.198437,0.0496 0.347265,0.1571 0.148829,0.10748 0.248047,0.27285 0.09922,0.16536 0.173633,0.38861 l 3.100586,7.74733 h 0.04134 l 3.224609,-7.72253 q 0.09095,-0.24805 0.198438,-0.42168 0.107487,-0.17363 0.23151,-0.27285 0.132292,-0.10749 0.289388,-0.14883 0.157097,-0.0496 0.363802,-0.0496 h 0.901237 q 0.124024,0 0.231511,0.0413 0.115755,0.0331 0.190169,0.11576 0.08268,0.0744 0.132292,0.19844 0.04961,0.11575 0.04961,0.28938 z"
         style="font-style:normal;font-variant:normal;font-weight:normal;font-stretch:normal;font-family:Calibri;-inkscape-font-specification:Calibri"
         id="path24"
         inkscape:connector-curvature="0" />
    </g>
  </g>
</svg>
